<svg xmlns="http://www.w3.org/2000/svg" version="1.1" xmlns:xlink="http://www.w3.org/1999/xlink" xmlns:svgjs="http://svgjs.dev/svgjs" width="2000" height="2000" viewBox="0 0 2000 2000"><g transform="matrix(1,0,0,1,0,0.0005598116400733488)"><svg viewBox="0 0 280 280" data-background-color="#ffffff" preserveAspectRatio="xMidYMid meet" height="2000" width="2000" xmlns="http://www.w3.org/2000/svg" xmlns:xlink="http://www.w3.org/1999/xlink"><g id="tight-bounds" transform="matrix(1,0,0,1,0,-0.00007837362960572136)"><svg viewBox="0 0 280 280" height="280" width="280"><g><svg viewBox="0 0 280 280" height="280" width="280"><g><svg viewBox="0 0 280 280" height="280" width="280"><g id="textblocktransform"><svg viewBox="0 0 280 280" height="280" width="280" id="textblock"><g><svg viewBox="0 0 280 280" height="280" width="280"><g transform="matrix(1,0,0,1,74.00336708925556,91.01583022396146)"><svg viewBox="0 0 131.99326582148888 97.96833955207708" height="97.96833955207708" width="131.99326582148888"><g><svg xmlns="http://www.w3.org/2000/svg" xmlns:xlink="http://www.w3.org/1999/xlink" version="1.1" x="0" y="0" viewBox="4.999998569488525 16.5 90 66.80000305175781" enable-background="new 0 0 100 100" xml:space="preserve" height="97.96833955207708" width="131.99326582148888" class="icon-o-0" data-fill-palette-color="accent" id="o-0"><path d="M22.2 35.3c0.2 0.4 0.7 0.7 1.1 0.7 0.2 0 0.4 0 0.6-0.1 0.6-0.3 0.9-1.1 0.6-1.7l-1.2-2.4c-0.3-0.6-1.1-0.9-1.7-0.6-0.6 0.3-0.9 1.1-0.6 1.7L22.2 35.3z" fill="#ea9937" data-fill-palette-color="accent"></path><path d="M32.5 33.5c0.2 0.1 0.4 0.1 0.6 0.1 0.5 0 0.9-0.3 1.1-0.7l1.2-2.4c0.3-0.6 0.1-1.4-0.6-1.7-0.6-0.3-1.4-0.1-1.7 0.6l-1.2 2.4C31.6 32.4 31.8 33.2 32.5 33.5z" fill="#ea9937" data-fill-palette-color="accent"></path><path d="M39.1 44.5h2.4c0.7 0 1.3-0.6 1.3-1.3S42.2 42 41.5 42h-2.4c-0.7 0-1.3 0.6-1.3 1.3S38.4 44.5 39.1 44.5z" fill="#ea9937" data-fill-palette-color="accent"></path><path d="M54.8 34.2c-0.3-0.6-1.1-0.9-1.7-0.6-0.6 0.3-0.9 1.1-0.6 1.7l1.2 2.4c0.2 0.4 0.7 0.7 1.1 0.7 0.2 0 0.4 0 0.6-0.1 0.6-0.3 0.9-1.1 0.6-1.7L54.8 34.2z" fill="#ea9937" data-fill-palette-color="accent"></path><path d="M68.2 36c0.5 0 0.9-0.3 1.1-0.7l1.2-2.4c0.3-0.6 0.1-1.4-0.6-1.7-0.6-0.3-1.4-0.1-1.7 0.6l-1.2 2.4c-0.3 0.6-0.1 1.4 0.6 1.7C67.8 36 68 36 68.2 36z" fill="#ea9937" data-fill-palette-color="accent"></path><path d="M58.5 32.4h2.4c0.7 0 1.3-0.6 1.3-1.3s-0.6-1.3-1.3-1.3h-2.4c-0.7 0-1.3 0.6-1.3 1.3S57.8 32.4 58.5 32.4z" fill="#ea9937" data-fill-palette-color="accent"></path><path d="M77.4 39.7c-0.6 0.3-0.9 1.1-0.6 1.7l1.2 2.4c0.2 0.4 0.7 0.7 1.1 0.7 0.2 0 0.4 0 0.6-0.1 0.6-0.3 0.9-1.1 0.6-1.7L79 40.3C78.7 39.7 78 39.4 77.4 39.7z" fill="#ea9937" data-fill-palette-color="accent"></path><path d="M68.2 45.7c-0.7 0-1.3 0.6-1.3 1.3s0.6 1.3 1.3 1.3h2.4c0.7 0 1.3-0.6 1.3-1.3s-0.6-1.3-1.3-1.3H68.2z" fill="#ea9937" data-fill-palette-color="accent"></path><path d="M50.7 50.5c0.2 0.1 0.4 0.1 0.6 0.1 0.5 0 0.9-0.3 1.1-0.7l1.2-2.4c0.3-0.6 0.1-1.4-0.6-1.7-0.6-0.3-1.4-0.1-1.7 0.6l-1.2 2.4C49.8 49.4 50 50.2 50.7 50.5z" fill="#ea9937" data-fill-palette-color="accent"></path><path d="M30.7 47.5c0.2 0.4 0.7 0.7 1.1 0.7 0.2 0 0.4 0 0.6-0.1 0.6-0.3 0.9-1.1 0.6-1.7l-1.2-2.4c-0.3-0.6-1.1-0.9-1.7-0.6-0.6 0.3-0.9 1.1-0.6 1.7L30.7 47.5z" fill="#ea9937" data-fill-palette-color="accent"></path><path d="M43.9 30h2.4c0.7 0 1.3-0.6 1.3-1.3s-0.6-1.3-1.3-1.3h-2.4c-0.7 0-1.3 0.6-1.3 1.3S43.2 30 43.9 30z" fill="#ea9937" data-fill-palette-color="accent"></path><path d="M20.3 44.4c0.2 0.1 0.4 0.1 0.6 0.1 0.5 0 0.9-0.3 1.1-0.7l1.2-2.4c0.3-0.6 0.1-1.4-0.6-1.7-0.6-0.3-1.4-0.1-1.7 0.6l-1.2 2.4C19.5 43.3 19.7 44.1 20.3 44.4z" fill="#ea9937" data-fill-palette-color="accent"></path><path d="M75.6 35.3c0.2 0.4 0.7 0.7 1.1 0.7 0.2 0 0.4 0 0.6-0.1 0.6-0.3 0.9-1.1 0.6-1.7l-1.2-2.4c-0.3-0.6-1.1-0.9-1.7-0.6-0.6 0.3-0.9 1.1-0.6 1.7L75.6 35.3z" fill="#ea9937" data-fill-palette-color="accent"></path><path d="M67 28.7h2.4c0.7 0 1.3-0.6 1.3-1.3s-0.6-1.3-1.3-1.3H67c-0.7 0-1.3 0.6-1.3 1.3S66.3 28.7 67 28.7z" fill="#ea9937" data-fill-palette-color="accent"></path><path d="M63.3 42.1h2.4c0.7 0 1.3-0.6 1.3-1.3s-0.6-1.3-1.3-1.3h-2.4c-0.7 0-1.3 0.6-1.3 1.3S62.7 42.1 63.3 42.1z" fill="#ea9937" data-fill-palette-color="accent"></path><path d="M39.7 38.3c0.2 0.1 0.4 0.1 0.6 0.1 0.5 0 0.9-0.3 1.1-0.7l1.2-2.4c0.3-0.6 0.1-1.4-0.6-1.7-0.6-0.3-1.4-0.1-1.7 0.6l-1.2 2.4C38.9 37.3 39.1 38 39.7 38.3z" fill="#ea9937" data-fill-palette-color="accent"></path><path d="M52.4 26.3h2.4c0.7 0 1.3-0.6 1.3-1.3s-0.6-1.3-1.3-1.3h-2.4c-0.7 0-1.3 0.6-1.3 1.3S51.7 26.3 52.4 26.3z" fill="#ea9937" data-fill-palette-color="accent"></path><path d="M94.9 41.6c-0.4-6.3-1.3-8-1.6-8.5C89.5 25.5 78.8 16.5 50 16.5c-28.8 0-39.5 9-43.4 16.6-0.3 0.6-1.2 2.3-1.6 8.5C5 42 5 42.3 5 42.7c0 0.1 0 0.1 0 0.2L5 43c0 0.4 0 0.8 0.2 1.2 0.4 2 1.5 3.8 3.3 5.4v1.8C6.2 53.4 5 55.8 5 58.3v8.5c0 11.3 23.3 16.5 45 16.5 21.7 0 45-5.2 45-16.5v-8.5c0-2.5-1.2-4.9-3.5-6.9v-1.8c1.8-1.6 2.9-3.4 3.3-5.4 0.1-0.4 0.2-0.8 0.2-1.3l0-0.1c0-0.1 0-0.2 0-0.2C95 42.3 95 42 94.9 41.6zM10 42.2c0 0 0-0.1 0-0.1 0-0.4 0.1-0.8 0.1-1.2 0 0 0-0.1 0-0.1 0.1-1.1 0.2-2.1 0.3-3 0 0 0-0.1 0-0.1 0-0.2 0.1-0.4 0.1-0.6 0.1-0.5 0.2-0.9 0.3-1.2 0 0 0 0 0 0 0-0.1 0.1-0.2 0.1-0.3 0-0.1 0.1-0.2 0.1-0.3 0.3-0.6 0.6-1.1 1-1.6 0 0 0 0 0 0 5-7.4 16.9-11.6 34.1-12.2 0.1 0 0.2 0 0.2 0 1.2 0 2.4-0.1 3.6-0.1 1.2 0 2.4 0 3.6 0.1 0.1 0 0.2 0 0.2 0 18.4 0.6 30.8 5.4 35.1 13.8 0 0.1 0.1 0.2 0.1 0.3 0 0.1 0.1 0.2 0.1 0.3 0 0 0 0 0 0 0.1 0.3 0.2 0.7 0.3 1.2 0 0.2 0.1 0.4 0.1 0.6 0 0 0 0.1 0 0.1 0.1 0.8 0.2 1.8 0.3 3 0 0 0 0.1 0 0.1 0 0.4 0.1 0.8 0.1 1.2 0 0 0 0.1 0 0.1 0 0 0 0 0 0.1 0 0.1 0 0.3 0 0.4 0 0 0 0 0 0 0 0 0 0.1 0 0.1 0 0 0 0.1 0 0.1 0 0 0 0.1 0 0.1 0 0.1 0 0.3-0.1 0.4 0 0.1 0 0.1 0 0.2 0 0.1-0.1 0.2-0.1 0.3-0.1 0.2-0.2 0.4-0.3 0.5 0 0 0 0 0 0-0.4 0.7-1.1 1.4-2 2.1 0 0-0.1 0.1-0.1 0.1-5.5 4.1-19.3 7.6-37.4 7.6-18.1 0-31.9-3.5-37.4-7.6 0 0-0.1-0.1-0.1-0.1-0.9-0.7-1.6-1.4-2-2.1 0 0 0 0 0 0-0.1-0.2-0.2-0.3-0.2-0.5-0.1-0.1-0.1-0.2-0.1-0.4 0-0.1 0-0.1 0-0.1 0-0.1-0.1-0.3-0.1-0.4 0 0 0-0.1 0-0.1 0 0 0-0.1 0-0.1 0 0 0-0.1 0-0.1 0 0 0 0 0 0C10 42.5 10 42.4 10 42.2zM50 61c14.9 0 30.6-2.8 36.5-8.1 0 4.9-15 10.4-36.5 10.4s-36.5-5.5-36.5-10.4C19.4 58.2 35.1 61 50 61zM14.8 50.7c8.2 3.9 22.1 5.9 35.2 5.9 13.1 0 27-2 35.2-5.9C81 54.8 67.7 58.5 50 58.5 32.3 58.5 19 54.8 14.8 50.7zM90 66.8c0 4.4-10.8 9.2-27.3 10.9-0.1 0-0.3 0-0.4 0-0.4 0-0.8 0.1-1.2 0.1-0.3 0-0.6 0.1-0.9 0.1-0.3 0-0.5 0-0.8 0.1-0.4 0-0.8 0.1-1.2 0.1-0.2 0-0.4 0-0.6 0-0.5 0-0.9 0.1-1.4 0.1-0.2 0-0.4 0-0.6 0-0.5 0-0.9 0-1.4 0.1-0.3 0-0.6 0-0.9 0-0.4 0-0.7 0-1.1 0-0.7 0-1.4 0-2.1 0s-1.4 0-2.1 0c-0.4 0-0.8 0-1.1 0-0.3 0-0.6 0-0.9 0-0.5 0-0.9 0-1.4-0.1-0.2 0-0.4 0-0.6 0-0.5 0-0.9 0-1.4-0.1-0.2 0-0.4 0-0.6 0-0.4 0-0.8-0.1-1.3-0.1-0.3 0-0.5 0-0.8-0.1-0.3 0-0.6-0.1-0.9-0.1-0.4 0-0.8-0.1-1.2-0.1-0.1 0-0.3 0-0.4 0C21 76 10.4 71.4 10 67c0-0.1 0-0.2 0-0.2v-3.5c6.3 5.9 23.6 9 40 9 16.4 0 33.7-3.1 40-9V66.8zM50 69.8c-23.6 0-40-6.1-40-11.5v0c0 0 0 0 0-0.1 0-0.1 0-0.3 0-0.4 0-0.1 0-0.1 0-0.2 0-0.1 0.1-0.2 0.1-0.3 0-0.1 0.1-0.1 0.1-0.2 0-0.1 0.1-0.2 0.1-0.3 0-0.1 0.1-0.2 0.1-0.2 0-0.1 0.1-0.2 0.2-0.2 0.1-0.1 0.1-0.2 0.2-0.3 0.1-0.1 0.1-0.1 0.2-0.2 0.1-0.1 0.2-0.2 0.3-0.3 0.1-0.1 0.1-0.1 0.2-0.2 0 0 0.1-0.1 0.1-0.1 1.4 2.7 4.9 4.8 9.7 6.5 2.5 2.5 5.3 3.6 7.7 4.4 1.6 0.5 4.3 0.8 7.1 0.8 2.9 0 6-0.4 8.2-1.4 1.9 0.1 3.8 0.1 5.7 0.1 2.8 0 5.5-0.1 8.3-0.3 0.2 0.2 0.5 0.3 0.7 0.5 1.1 0.7 2.8 1 4.6 1 3.3 0 7.3-1 10.5-2.3 1.6-0.7 3.8-1.8 5.6-3.3 4.3-1.6 7.4-3.7 8.7-6.1 0 0 0.1 0.1 0.1 0.1 0.1 0.1 0.1 0.1 0.2 0.2 0.1 0.1 0.2 0.2 0.3 0.3 0.1 0.1 0.1 0.1 0.2 0.2 0.1 0.1 0.1 0.2 0.2 0.3 0.1 0.1 0.1 0.2 0.2 0.2 0 0.1 0.1 0.2 0.1 0.2 0.1 0.1 0.1 0.2 0.1 0.3 0 0.1 0.1 0.1 0.1 0.2 0 0.1 0.1 0.2 0.1 0.3 0 0.1 0 0.1 0 0.2 0 0.2 0 0.3 0 0.5C90 63.7 73.6 69.8 50 69.8z" fill="#ea9937" data-fill-palette-color="accent"></path></svg></g></svg></g><g><path d="M14.342 79.144c0.779-2.005 2.057-3.395 3.833-4.172 1.774-0.77 3.922-0.665 6.446 0.316v0l10.28 3.995-0.553 1.422-10.183-3.958c-2.088-0.811-3.883-0.934-5.386-0.368-1.499 0.575-2.587 1.733-3.264 3.475v0c-0.704 1.813-0.646 3.512 0.175 5.1 0.823 1.581 2.42 2.831 4.789 3.752v0l9.348 3.633-0.553 1.422-10.183-3.958c-2.088-0.811-3.884-0.931-5.39-0.358-1.496 0.569-2.584 1.727-3.264 3.475v0c-0.702 1.806-0.642 3.503 0.179 5.09 0.821 1.587 2.416 2.841 4.785 3.762v0l9.348 3.632-0.564 1.451-17.552-6.821 0.564-1.451 3.814 1.482c-1.189-1.037-1.918-2.245-2.185-3.624-0.268-1.379-0.12-2.793 0.442-4.241v0c0.62-1.595 1.567-2.808 2.841-3.639 1.281-0.829 2.811-1.145 4.593-0.947v0c-1.455-1.037-2.368-2.31-2.741-3.818-0.366-1.506-0.239-3.056 0.381-4.652z" fill="#ea3c12" data-fill-palette-color="primary"></path><path d="M30.129 70.015c-1.585-1.127-2.747-2.426-3.489-3.898-0.737-1.477-1.026-3.003-0.868-4.576 0.157-1.583 0.743-3.089 1.758-4.517v0c1.155-1.624 2.532-2.718 4.132-3.284 1.594-0.57 3.163-0.642 4.709-0.218v0l-4.015-2.856 0.908-1.276 15.345 10.914-0.908 1.277-4.04-2.874c0.924 1.332 1.381 2.854 1.369 4.566-0.012 1.712-0.587 3.368-1.726 4.97v0c-1.016 1.428-2.248 2.474-3.699 3.137-1.446 0.658-2.993 0.877-4.641 0.658-1.644-0.225-3.256-0.899-4.835-2.023zM40.016 56.115c-1.338-0.952-2.72-1.517-4.144-1.696-1.419-0.175-2.748 0.023-3.988 0.592-1.241 0.559-2.284 1.432-3.128 2.619v0c-0.888 1.249-1.398 2.535-1.529 3.858-0.132 1.323 0.125 2.61 0.769 3.861 0.645 1.251 1.664 2.373 3.059 3.364v0c1.394 0.992 2.785 1.585 4.173 1.78 1.393 0.199 2.703 0.017 3.929-0.545 1.22-0.566 2.266-1.461 3.139-2.688v0c0.844-1.187 1.334-2.462 1.468-3.825 0.135-1.363-0.118-2.685-0.758-3.967-0.638-1.272-1.635-2.39-2.99-3.353z" fill="#ea3c12" data-fill-palette-color="primary"></path><path d="M61.738 47.247l-1.533 1.514-11.921-0.368 6.069 6.147-1.108 1.093-18.031-18.263 1.107-1.093 10.797 10.936-0.246-11.751 1.555-1.535 0.085 13.068z" fill="#ea3c12" data-fill-palette-color="primary"></path><path d="M72.839 26.272c0.483 0.677 0.827 1.195 1.033 1.555v0l-13.241 9.445c1.015 1.352 2.14 2.297 3.375 2.833 1.235 0.537 2.484 0.714 3.747 0.531 1.258-0.188 2.433-0.672 3.523-1.45v0c1.505-1.073 2.501-2.345 2.989-3.815 0.487-1.47 0.406-2.94-0.245-4.408v0l1.325-0.946c0.811 1.776 0.943 3.594 0.396 5.453-0.552 1.854-1.778 3.459-3.681 4.815v0c-1.432 1.021-2.941 1.616-4.525 1.785-1.583 0.159-3.124-0.131-4.621-0.869-1.488-0.737-2.802-1.905-3.943-3.505v0c-1.141-1.6-1.821-3.216-2.041-4.849-0.214-1.637 0.019-3.174 0.698-4.613 0.679-1.438 1.743-2.674 3.192-3.707v0c1.471-1.049 2.972-1.643 4.503-1.781 1.536-0.142 2.958 0.106 4.265 0.743 1.306 0.647 2.389 1.575 3.251 2.783zM71.913 27.654c-0.914-1.399-1.974-2.377-3.182-2.934-1.207-0.557-2.436-0.735-3.686-0.535-1.249 0.19-2.41 0.668-3.484 1.434v0c-1.074 0.766-1.901 1.707-2.482 2.821-0.585 1.109-0.83 2.339-0.736 3.69 0.094 1.351 0.609 2.718 1.545 4.101v0z" fill="#ea3c12" data-fill-palette-color="primary"></path><path d="M100.384 5.606l1.505-0.536-1.04 29.75-1.495 0.533 0.322-9.503-13.768-15.085 1.602-0.571 12.41 13.73z" fill="#ea3c12" data-fill-palette-color="primary"></path><path d="M120.755 20.759c-1.732 0.309-3.36 0.201-4.884-0.322-1.526-0.531-2.81-1.45-3.853-2.758-1.042-1.301-1.735-2.919-2.08-4.853v0c-0.341-1.914-0.246-3.666 0.287-5.255 0.541-1.583 1.444-2.882 2.708-3.896 1.264-1.014 2.762-1.676 4.494-1.985v0c1.732-0.309 3.359-0.205 4.882 0.313 1.523 0.517 2.805 1.423 3.845 2.716 1.04 1.294 1.733 2.909 2.079 4.843v0c0.345 1.935 0.25 3.693-0.284 5.276-0.54 1.59-1.441 2.899-2.703 3.926-1.263 1.021-2.76 1.686-4.491 1.995zM120.51 19.389c1.346-0.24 2.551-0.766 3.614-1.576 1.063-0.811 1.84-1.895 2.33-3.253 0.485-1.35 0.567-2.925 0.246-4.724v0c-0.317-1.779-0.937-3.218-1.859-4.317-0.93-1.104-2.027-1.855-3.291-2.25-1.272-0.401-2.578-0.482-3.917-0.244v0c-1.346 0.24-2.54 0.767-3.581 1.581-1.043 0.807-1.806 1.889-2.29 3.246-0.485 1.35-0.569 2.914-0.251 4.693v0c0.321 1.799 0.936 3.25 1.844 4.351 0.916 1.107 2.003 1.859 3.26 2.256 1.257 0.397 2.556 0.476 3.895 0.237z" fill="#ea3c12" data-fill-palette-color="primary"></path><path d="M149.921 0.08l1.567 0.009-0.104 18.83-1.566-0.008 0.022-4.092c-0.537 1.433-1.426 2.521-2.667 3.263-1.241 0.742-2.662 1.109-4.262 1.1v0c-2.24-0.012-4.067-0.71-5.483-2.092-1.415-1.382-2.115-3.427-2.1-6.134v0l0.061-10.956 1.525 0.008-0.06 10.854c-0.012 2.24 0.545 3.961 1.673 5.162 1.127 1.195 2.663 1.798 4.607 1.809v0c2.034 0.011 3.659-0.626 4.876-1.911 1.223-1.292 1.842-3.209 1.856-5.752v0z" fill="#ea3c12" data-fill-palette-color="primary"></path><path d="M161.989 5.531c0.685-1.294 1.666-2.206 2.944-2.735 1.284-0.528 2.828-0.645 4.631-0.35v0l-0.263 1.607-0.518-0.084c-1.824-0.298-3.425-0.027-4.802 0.812-1.384 0.839-2.268 2.435-2.652 4.788v0l-1.752 10.711-1.536-0.251 3.039-18.584 1.536 0.251z" fill="#ea3c12" data-fill-palette-color="primary"></path><path d="M188.764 14.16c1.136-1.17 2.534-1.924 4.192-2.261 1.662-0.343 3.394-0.124 5.197 0.658v0c1.614 0.7 2.894 1.685 3.841 2.956 0.956 1.268 1.497 2.723 1.624 4.366 0.133 1.645-0.187 3.36-0.96 5.144v0c-0.771 1.778-1.804 3.187-3.102 4.228-1.291 1.043-2.728 1.656-4.312 1.838-1.578 0.185-3.174-0.072-4.788-0.772v0c-1.803-0.781-3.152-1.894-4.047-3.338-0.898-1.453-1.299-2.99-1.203-4.61v0l-1.959 4.52-1.428-0.619 10.205-23.548 1.428 0.619zM201.192 24.388c0.68-1.57 0.973-3.057 0.878-4.461-0.095-1.404-0.548-2.641-1.358-3.711-0.809-1.07-1.914-1.908-3.313-2.515v0c-1.337-0.579-2.684-0.789-4.042-0.628-1.349 0.157-2.582 0.678-3.699 1.564-1.121 0.892-2.007 2.092-2.661 3.599v0c-0.661 1.526-0.933 2.999-0.815 4.421 0.115 1.428 0.576 2.687 1.384 3.779 0.814 1.094 1.889 1.931 3.226 2.51v0c1.4 0.607 2.768 0.836 4.104 0.689 1.34-0.153 2.554-0.675 3.645-1.566 1.087-0.884 1.971-2.111 2.651-3.681z" fill="#ea3c12" data-fill-palette-color="primary"></path><path d="M225.873 29.332l1.295 0.882-10.604 15.562-1.294-0.882 2.304-3.381c-1.246 0.889-2.591 1.295-4.035 1.217-1.444-0.077-2.827-0.567-4.15-1.469v0c-1.851-1.261-2.978-2.86-3.379-4.797-0.402-1.937 0.16-4.024 1.684-6.261v0l6.169-9.054 1.261 0.859-6.112 8.969c-1.261 1.851-1.76 3.59-1.496 5.217 0.268 1.621 1.205 2.979 2.812 4.073v0c1.681 1.145 3.385 1.525 5.111 1.138 1.736-0.388 3.32-1.633 4.752-3.734v0z" fill="#ea3c12" data-fill-palette-color="primary"></path><path d="M232.838 40.597c1.291-0.691 2.615-0.899 3.969-0.623 1.36 0.28 2.705 1.046 4.037 2.298v0l-1.116 1.186-0.383-0.361c-1.346-1.267-2.825-1.936-4.436-2.008-1.616-0.077-3.241 0.752-4.876 2.488v0l-7.437 7.904-1.134-1.066 12.905-13.714 1.133 1.067z" fill="#ea3c12" data-fill-palette-color="primary"></path><path d="M250.64 54.58c1.228 1.569 1.891 3.197 1.988 4.883 0.098 1.686-0.274 3.207-1.115 4.563v0l3.848-3.011 0.965 1.234-15.294 11.965c-1.369 1.071-2.803 1.709-4.301 1.913-1.498 0.204-2.923 0.01-4.276-0.581-1.353-0.581-2.521-1.5-3.503-2.755v0c-1.456-1.862-2.215-3.751-2.274-5.667-0.064-1.922 0.511-3.663 1.724-5.223v0l0.959 1.226c-0.902 1.29-1.308 2.711-1.218 4.264 0.08 1.552 0.704 3.074 1.872 4.568v0c0.809 1.034 1.774 1.788 2.896 2.262 1.122 0.475 2.304 0.614 3.547 0.419 1.237-0.192 2.44-0.745 3.609-1.66v0l4.343-3.397c-1.524 0.494-3.105 0.492-4.742-0.007-1.638-0.499-3.062-1.522-4.273-3.069v0c-1.08-1.38-1.731-2.86-1.954-4.439-0.219-1.574 0.011-3.119 0.691-4.636 0.684-1.512 1.789-2.865 3.315-4.06v0c1.532-1.198 3.108-1.943 4.729-2.234 1.626-0.286 3.171-0.129 4.635 0.47 1.473 0.601 2.75 1.591 3.829 2.972zM247.958 66.807c1.293-1.012 2.228-2.175 2.805-3.49 0.571-1.311 0.761-2.641 0.568-3.991-0.183-1.349-0.723-2.597-1.621-3.744v0c-0.944-1.207-2.032-2.062-3.262-2.564-1.231-0.503-2.538-0.623-3.921-0.362-1.383 0.262-2.748 0.92-4.096 1.975v0c-1.348 1.054-2.312 2.219-2.894 3.494-0.587 1.279-0.786 2.586-0.596 3.921 0.195 1.331 0.756 2.589 1.683 3.774v0c0.898 1.147 1.981 1.98 3.249 2.496 1.268 0.517 2.608 0.651 4.018 0.403 1.401-0.25 2.756-0.887 4.067-1.912z" fill="#ea3c12" data-fill-palette-color="primary"></path><path d="M261.671 89.788c-0.742 0.375-1.307 0.637-1.693 0.785v0l-7.331-14.519c-1.49 0.799-2.594 1.768-3.312 2.908-0.718 1.14-1.082 2.347-1.092 3.623-0.004 1.272 0.296 2.506 0.9 3.702v0c0.833 1.65 1.939 2.827 3.319 3.532 1.379 0.704 2.844 0.846 4.394 0.425v0l0.734 1.454c-1.879 0.533-3.695 0.388-5.45-0.435-1.749-0.826-3.15-2.282-4.202-4.367v0c-0.793-1.57-1.152-3.151-1.079-4.744 0.083-1.589 0.603-3.068 1.559-4.435 0.953-1.359 2.307-2.481 4.061-3.367v0c1.754-0.886 3.455-1.313 5.103-1.283 1.65 0.037 3.135 0.499 4.453 1.388 1.319 0.889 2.379 2.128 3.182 3.717v0c0.815 1.613 1.174 3.187 1.078 4.72-0.092 1.54-0.553 2.908-1.38 4.103-0.837 1.193-1.918 2.123-3.244 2.793zM260.445 88.663c1.521-0.691 2.649-1.591 3.382-2.701 0.733-1.109 1.096-2.297 1.088-3.562 0.001-1.263-0.296-2.483-0.89-3.661v0c-0.595-1.178-1.399-2.138-2.413-2.881-1.008-0.746-2.186-1.175-3.536-1.286-1.349-0.111-2.779 0.191-4.288 0.906v0z" fill="#ea3c12" data-fill-palette-color="primary"></path><path d="M268.617 96.971c1.464 0.011 2.726 0.461 3.784 1.35 1.061 0.896 1.876 2.212 2.447 3.948v0l-1.547 0.508-0.164-0.5c-0.577-1.756-1.556-3.051-2.936-3.884-1.383-0.84-3.207-0.889-5.472-0.145v0l-10.311 3.387-0.486-1.478 17.891-5.877 0.485 1.478z" fill="#ea3c12" data-fill-palette-color="primary"></path><path d="M32.603 193.489c0.779 2.005 0.776 3.893-0.01 5.666-0.788 1.766-2.444 3.139-4.967 4.12v0l-10.28 3.995-0.552-1.422 10.183-3.958c2.088-0.811 3.495-1.933 4.221-3.365 0.717-1.436 0.737-3.025 0.061-4.768v0c-0.704-1.813-1.895-3.027-3.572-3.643-1.675-0.61-3.697-0.454-6.067 0.467v0l-9.348 3.633-0.552-1.422 10.183-3.958c2.088-0.811 3.494-1.936 4.218-3.375 0.72-1.43 0.74-3.019 0.06-4.767v0c-0.702-1.806-1.891-3.017-3.568-3.634-1.677-0.616-3.7-0.464-6.071 0.457v0l-9.347 3.633-0.564-1.451 17.552-6.821 0.564 1.451-3.814 1.482c1.578-0.038 2.931 0.361 4.059 1.198 1.129 0.837 1.974 1.979 2.537 3.426v0c0.62 1.595 0.741 3.129 0.363 4.603-0.385 1.476-1.3 2.743-2.748 3.799v0c1.773-0.217 3.306 0.105 4.599 0.966 1.287 0.864 2.24 2.093 2.86 3.688z" fill="#ea3c12" data-fill-palette-color="primary"></path><path d="M30.152 209.699c1.585-1.127 3.193-1.799 4.827-2.017 1.637-0.212 3.173 0.015 4.608 0.681 1.444 0.667 2.674 1.715 3.69 3.143v0c1.155 1.624 1.737 3.284 1.746 4.981 0.015 1.693-0.431 3.199-1.339 4.519v0l4.015-2.855 0.908 1.276-15.345 10.915-0.908-1.277 4.04-2.873c-1.562 0.436-3.149 0.368-4.762-0.205-1.613-0.573-2.989-1.66-4.129-3.261v0c-1.016-1.428-1.599-2.936-1.75-4.523-0.147-1.582 0.154-3.115 0.902-4.601 0.752-1.479 1.918-2.781 3.497-3.903zM40.039 223.599c1.338-0.952 2.325-2.071 2.962-3.359 0.63-1.283 0.88-2.603 0.749-3.96-0.121-1.356-0.604-2.627-1.448-3.815v0c-0.888-1.249-1.936-2.152-3.142-2.71-1.207-0.558-2.507-0.738-3.9-0.54-1.393 0.199-2.787 0.794-4.182 1.785v0c-1.394 0.992-2.411 2.111-3.05 3.359-0.645 1.251-0.903 2.548-0.775 3.89 0.134 1.338 0.637 2.62 1.51 3.847v0c0.844 1.187 1.888 2.068 3.131 2.642 1.243 0.574 2.575 0.77 3.996 0.585 1.411-0.186 2.794-0.76 4.149-1.724z" fill="#ea3c12" data-fill-palette-color="primary"></path><path d="M48.506 245.885l-1.533-1.514 0.216-11.925-6.069 6.146-1.107-1.093 18.032-18.263 1.107 1.094-10.797 10.935 11.746-0.395 1.555 1.535-13.066 0.251z" fill="#ea3c12" data-fill-palette-color="primary"></path><path d="M74.304 251.404c-0.483 0.677-0.861 1.171-1.134 1.483v0l-13.241-9.445c-0.948 1.4-1.475 2.772-1.58 4.115-0.105 1.343 0.134 2.581 0.718 3.715 0.588 1.128 1.427 2.081 2.518 2.859v0c1.505 1.073 3.032 1.601 4.58 1.584 1.549-0.018 2.912-0.573 4.088-1.667v0l1.326 0.945c-1.415 1.345-3.091 2.062-5.027 2.149-1.932 0.082-3.849-0.555-5.751-1.912v0c-1.432-1.021-2.486-2.254-3.161-3.697-0.666-1.445-0.893-2.996-0.683-4.652 0.212-1.646 0.889-3.27 2.03-4.87v0c1.141-1.6 2.448-2.769 3.921-3.508 1.478-0.735 3.008-1.016 4.588-0.842 1.581 0.174 3.096 0.778 4.545 1.811v0c1.471 1.049 2.521 2.275 3.15 3.677 0.634 1.406 0.863 2.831 0.686 4.275-0.187 1.445-0.711 2.772-1.573 3.98zM72.696 250.979c1.026-1.319 1.605-2.641 1.738-3.964 0.133-1.323-0.098-2.543-0.694-3.66-0.586-1.119-1.416-2.061-2.49-2.827v0c-1.074-0.766-2.233-1.242-3.476-1.428-1.239-0.192-2.482-0.023-3.728 0.505-1.247 0.529-2.371 1.461-3.375 2.797v0z" fill="#ea3c12" data-fill-palette-color="primary"></path><path d="M106.705 256.388l1.504 0.536-19.62 22.387-1.495-0.533 6.26-7.157-1.125-20.392 1.602 0.571 0.929 18.484z" fill="#ea3c12" data-fill-palette-color="primary"></path><path d="M117.35 278.06c-1.732-0.309-3.222-0.973-4.472-1.991-1.248-1.025-2.135-2.332-2.661-3.92-0.528-1.581-0.619-3.339-0.274-5.273v0c0.341-1.914 1.037-3.525 2.087-4.831 1.055-1.298 2.351-2.205 3.887-2.72 1.537-0.515 3.171-0.617 4.903-0.308v0c1.732 0.309 3.223 0.969 4.473 1.981 1.25 1.012 2.14 2.305 2.669 3.879 0.529 1.574 0.621 3.328 0.276 5.263v0c-0.345 1.935-1.042 3.552-2.091 4.851-1.056 1.305-2.354 2.222-3.893 2.75-1.538 0.521-3.173 0.628-4.904 0.319zM117.594 276.69c1.346 0.24 2.658 0.164 3.936-0.23 1.278-0.393 2.381-1.142 3.311-2.246 0.922-1.099 1.543-2.548 1.864-4.348v0c0.317-1.779 0.233-3.344-0.251-4.693-0.491-1.358-1.261-2.441-2.31-3.249-1.055-0.816-2.252-1.344-3.592-1.583v0c-1.346-0.24-2.649-0.158-3.907 0.245-1.257 0.397-2.348 1.148-3.271 2.254-0.922 1.099-1.542 2.538-1.858 4.317v0c-0.321 1.799-0.246 3.373 0.225 4.72 0.477 1.355 1.237 2.437 2.28 3.244 1.043 0.807 2.234 1.33 3.573 1.569z" fill="#ea3c12" data-fill-palette-color="primary"></path><path d="M149.818 260.822l1.566-0.009 0.104 18.831-1.567 0.009-0.022-4.092c-0.521 1.439-1.398 2.536-2.631 3.292-1.233 0.756-2.65 1.138-4.25 1.147v0c-2.24 0.012-4.075-0.665-5.505-2.031-1.43-1.366-2.152-3.403-2.168-6.111v0l-0.06-10.956 1.526-0.008 0.059 10.853c0.012 2.24 0.589 3.955 1.729 5.144 1.14 1.182 2.683 1.768 4.628 1.757v0c2.034-0.011 3.652-0.666 4.854-1.964 1.209-1.305 1.807-3.229 1.792-5.772v0z" fill="#ea3c12" data-fill-palette-color="primary"></path><path d="M160.204 263.287c0.237-1.445 0.877-2.622 1.919-3.531 1.049-0.91 2.475-1.512 4.279-1.806v0l0.263 1.607-0.519 0.085c-1.824 0.298-3.255 1.065-4.292 2.299-1.044 1.236-1.374 3.031-0.989 5.384v0l1.752 10.711-1.536 0.251-3.04-18.584 1.536-0.251z" fill="#ea3c12" data-fill-palette-color="primary"></path><path d="M185.219 257.392c-0.077-1.629 0.329-3.164 1.217-4.605 0.886-1.447 2.23-2.562 4.033-3.343v0c1.614-0.7 3.209-0.96 4.784-0.782 1.579 0.17 3.011 0.77 4.296 1.801 1.292 1.028 2.324 2.434 3.098 4.218v0c0.771 1.778 1.092 3.496 0.964 5.153-0.121 1.655-0.657 3.123-1.608 4.404-0.944 1.278-2.223 2.266-3.837 2.966v0c-1.803 0.781-3.537 1.005-5.202 0.671-1.674-0.338-3.07-1.096-4.187-2.274v0l1.959 4.52-1.428 0.619-10.206-23.548 1.428-0.619zM201.181 255.316c-0.68-1.57-1.566-2.8-2.656-3.691-1.09-0.891-2.302-1.406-3.636-1.547-1.334-0.141-2.701 0.092-4.1 0.699v0c-1.337 0.579-2.41 1.419-3.222 2.52-0.808 1.091-1.27 2.348-1.388 3.769-0.115 1.428 0.154 2.895 0.807 4.402v0c0.661 1.526 1.551 2.732 2.668 3.618 1.121 0.892 2.355 1.417 3.704 1.573 1.355 0.154 2.701-0.058 4.038-0.637v0c1.4-0.607 2.503-1.448 3.309-2.524 0.804-1.082 1.254-2.326 1.349-3.73 0.098-1.398-0.193-2.882-0.873-4.452z" fill="#ea3c12" data-fill-palette-color="primary"></path><path d="M215.271 234.838l1.295-0.882 10.603 15.562-1.294 0.882-2.305-3.382c0.371 1.485 0.257 2.885-0.343 4.201-0.6 1.315-1.562 2.424-2.885 3.325v0c-1.851 1.261-3.751 1.725-5.701 1.39-1.949-0.335-3.686-1.621-5.211-3.858v0l-6.169-9.055 1.261-0.859 6.111 8.97c1.261 1.851 2.697 2.952 4.307 3.301 1.606 0.344 3.213-0.032 4.82-1.127v0c1.681-1.145 2.657-2.592 2.93-4.34 0.274-1.758-0.305-3.688-1.737-5.789v0z" fill="#ea3c12" data-fill-palette-color="primary"></path><path d="M225.26 231.08c-0.611-1.331-0.738-2.664-0.381-4 0.362-1.34 1.208-2.637 2.539-3.889v0l1.116 1.186-0.383 0.36c-1.346 1.267-2.104 2.702-2.275 4.306-0.175 1.609 0.554 3.281 2.188 5.017v0l7.438 7.904-1.133 1.067-12.905-13.714 1.133-1.066z" fill="#ea3c12" data-fill-palette-color="primary"></path><path d="M235.421 213.244c1.228-1.569 2.648-2.604 4.261-3.105 1.613-0.5 3.179-0.506 4.698-0.015v0l-3.848-3.011 0.965-1.234 15.294 11.966c1.369 1.071 2.333 2.309 2.891 3.714 0.558 1.405 0.713 2.835 0.465 4.29-0.239 1.454-0.849 2.808-1.831 4.064v0c-1.456 1.862-3.108 3.052-4.953 3.571-1.85 0.524-3.678 0.386-5.484-0.417v0l0.959-1.226c1.469 0.565 2.946 0.617 4.432 0.156 1.487-0.451 2.815-1.423 3.983-2.916v0c0.809-1.034 1.308-2.152 1.499-3.355 0.191-1.203 0.042-2.384-0.447-3.543-0.484-1.155-1.31-2.19-2.479-3.105v0l-4.343-3.397c0.846 1.36 1.225 2.895 1.135 4.604-0.09 1.709-0.74 3.338-1.951 4.886v0c-1.08 1.38-2.359 2.368-3.838 2.965-1.475 0.591-3.03 0.74-4.667 0.445-1.632-0.3-3.212-1.047-4.738-2.241v0c-1.532-1.198-2.634-2.549-3.307-4.053-0.669-1.509-0.888-3.046-0.658-4.611 0.229-1.575 0.883-3.052 1.962-4.432zM247.935 212.905c-1.293-1.012-2.648-1.64-4.062-1.882-1.41-0.239-2.746-0.103-4.011 0.408-1.265 0.502-2.347 1.327-3.244 2.475v0c-0.944 1.207-1.512 2.468-1.704 3.783-0.192 1.316 0.006 2.613 0.593 3.893 0.587 1.279 1.554 2.446 2.902 3.5v0c1.348 1.054 2.71 1.71 4.087 1.968 1.383 0.262 2.7 0.14 3.95-0.365 1.245-0.509 2.331-1.357 3.258-2.542v0c0.898-1.147 1.445-2.399 1.641-3.754 0.197-1.355 0.005-2.688-0.576-3.997-0.58-1.3-1.524-2.462-2.834-3.487z" fill="#ea3c12" data-fill-palette-color="primary"></path><path d="M259.419 188.806c0.742 0.375 1.288 0.673 1.638 0.896v0l-7.331 14.518c1.528 0.725 2.963 1.038 4.306 0.939 1.343-0.099 2.531-0.523 3.564-1.272 1.026-0.752 1.841-1.726 2.445-2.922v0c0.833-1.65 1.124-3.239 0.871-4.767-0.252-1.528-1.008-2.791-2.266-3.789v0l0.734-1.454c1.544 1.195 2.506 2.743 2.885 4.644 0.374 1.897 0.034 3.889-1.019 5.975v0c-0.793 1.57-1.852 2.798-3.176 3.684-1.328 0.877-2.826 1.336-4.495 1.379-1.66 0.04-3.366-0.383-5.121-1.269v0c-1.754-0.886-3.108-2-4.062-3.344-0.95-1.35-1.459-2.819-1.527-4.408-0.068-1.589 0.3-3.178 1.102-4.767v0c0.815-1.613 1.867-2.837 3.158-3.67 1.294-0.84 2.668-1.282 4.122-1.325 1.457-0.034 2.848 0.283 4.172 0.952zM259.242 190.46c-1.46-0.814-2.853-1.187-4.181-1.118-1.328 0.069-2.499 0.482-3.512 1.24-1.017 0.749-1.823 1.712-2.418 2.89v0c-0.595 1.178-0.89 2.395-0.885 3.651-0.002 1.254 0.353 2.457 1.064 3.609 0.711 1.152 1.803 2.123 3.275 2.912v0z" fill="#ea3c12" data-fill-palette-color="primary"></path><path d="M258.112 179.308c-1.173-0.877-1.922-1.987-2.247-3.331-0.323-1.35-0.2-2.893 0.371-4.63v0l1.547 0.509-0.164 0.499c-0.577 1.756-0.557 3.379 0.06 4.869 0.615 1.497 2.055 2.617 4.32 3.362v0l10.312 3.387-0.486 1.478-17.891-5.877 0.486-1.478z" fill="#ea3c12" data-fill-palette-color="primary"></path><path d="M0.325 139.865c0-5.415 4.39-9.804 9.804-9.804 5.415 0 9.804 4.39 9.805 9.804 0 5.415-4.39 9.804-9.805 9.805-5.415 0-9.804-4.39-9.804-9.805z" fill="#ea3c12" data-fill-palette-color="primary"></path><path d="M260.066 139.865c0-5.415 4.39-9.804 9.805-9.804 5.415 0 9.804 4.39 9.804 9.804 0 5.415-4.39 9.804-9.804 9.805-5.415 0-9.804-4.39-9.805-9.805z" fill="#ea3c12" data-fill-palette-color="primary"></path></g></svg></g></svg></g></svg></g></svg></g><defs></defs></svg><rect width="280" height="280" fill="none" stroke="none" visibility="hidden"></rect></g></svg></g></svg>